<?xml version="1.0" standalone="no"?>
<!DOCTYPE svg PUBLIC "-//W3C//DTD SVG 20010904//EN"
 "http://www.w3.org/TR/2001/REC-SVG-20010904/DTD/svg10.dtd">
<svg version="1.0" xmlns="http://www.w3.org/2000/svg"
 width="100.000000pt" height="100.000000pt" viewBox="0 0 100.000000 100.000000"
 preserveAspectRatio="xMidYMid meet">

<g transform="translate(0.000000,100.000000) scale(0.100000,-0.100000)"
fill="#000000" stroke="none">
<path d="M335 899 c-5 -15 -10 -17 -19 -10 -7 6 -35 12 -61 13 l-49 3 -19 -97
-19 -97 -72 -3 -71 -3 -3 -99 c-2 -64 1 -103 9 -112 9 -11 41 -14 130 -14
l119 0 0 -140 0 -139 -102 -3 -103 -3 0 -55 0 -55 450 0 450 0 0 210 0 210
-262 3 -263 2 0 96 c0 87 -2 96 -20 101 -25 7 -25 10 1 101 11 41 17 78 12 82
-10 9 -72 30 -89 30 -7 0 -16 -9 -19 -21z m83 -24 c2 -2 -7 -39 -20 -82 -18
-60 -28 -79 -43 -81 -43 -5 -45 9 -19 97 25 80 27 83 52 76 15 -4 28 -8 30
-10z m-122 -8 c2 -1 -1 -20 -6 -42 -4 -22 -11 -57 -14 -77 -6 -31 -11 -38 -29
-38 -44 0 -50 12 -37 76 19 98 18 97 53 90 17 -3 32 -7 33 -9z m114 -272 l0
-75 -175 0 -175 0 0 75 0 75 175 0 175 0 0 -75z m530 -210 l0 -95 -136 0 c-74
0 -144 -5 -155 -10 -16 -9 -19 -22 -19 -85 l0 -75 -155 0 -155 0 0 180 0 180
310 0 310 0 0 -95z m0 -200 l0 -66 -132 3 -133 3 -3 54 c-2 37 1 57 10 62 7 5
68 9 136 9 l122 0 0 -65z m-660 -45 l0 -30 -90 0 -90 0 0 30 0 30 90 0 90 0 0
-30z"/>
<path d="M80 630 c0 -11 5 -20 10 -20 6 0 10 9 10 20 0 11 -4 20 -10 20 -5 0
-10 -9 -10 -20z"/>
</g>
</svg>
