<?xml version="1.0" standalone="no"?>
<!DOCTYPE svg PUBLIC "-//W3C//DTD SVG 20010904//EN"
 "http://www.w3.org/TR/2001/REC-SVG-20010904/DTD/svg10.dtd">
<svg version="1.0" xmlns="http://www.w3.org/2000/svg"
 width="95.000000pt" height="98.000000pt" viewBox="0 0 95.000000 98.000000"
 preserveAspectRatio="xMidYMid meet">

<g transform="translate(0.000000,98.000000) scale(0.100000,-0.100000)"
fill="#000000" stroke="none">
<path d="M165 973 c-32 -8 -43 -21 -38 -46 3 -13 -2 -29 -10 -35 -10 -9 -13
-26 -9 -61 l4 -49 -55 -38 c-31 -22 -56 -45 -57 -52 0 -7 28 -26 62 -42 44
-21 65 -37 68 -52 5 -20 13 -23 63 -26 l57 -3 2 -182 3 -182 133 -3 132 -3 0
-79 0 -80 -31 0 c-24 0 -30 -4 -27 -17 3 -16 19 -18 163 -18 144 0 160 2 163
18 3 14 -4 17 -32 17 l-36 0 0 80 0 79 113 3 112 3 0 200 0 200 -292 3 -291 2
-6 38 c-3 20 -11 87 -17 149 -8 74 -16 114 -24 117 -8 3 -11 13 -8 25 4 16 -1
21 -31 26 -22 5 -42 3 -50 -4 -10 -9 -15 -8 -20 4 -6 16 -8 16 -41 8z m25 -42
c0 -10 -7 -22 -16 -25 -23 -9 -24 -8 -24 19 0 18 5 25 20 25 13 0 20 -7 20
-19z m85 -1 c0 -9 -11 -16 -28 -18 -26 -3 -28 -2 -17 18 13 23 45 23 45 0z
m28 -102 c3 -29 9 -87 13 -129 l7 -77 -42 -6 c-22 -3 -58 -9 -79 -12 l-39 -5
-6 73 c-4 40 -10 101 -13 135 l-7 62 44 4 c24 2 60 4 80 5 l36 2 6 -52z m-183
-128 c0 -22 -2 -40 -5 -40 -2 0 -20 8 -39 17 l-35 16 31 24 c18 13 36 23 40
23 4 0 8 -18 8 -40z m790 -295 l0 -165 -310 0 -310 0 0 165 0 165 310 0 310 0
0 -165z m-225 -285 l0 -75 -65 0 -65 0 -3 78 -3 78 68 -3 68 -3 0 -75z"/>
<path d="M174 826 c-9 -24 4 -48 23 -44 24 4 24 52 0 56 -9 2 -20 -4 -23 -12z"/>
<path d="M531 547 c-7 -7 -11 -57 -11 -138 0 -106 3 -128 16 -133 20 -8 284
118 284 136 0 12 -102 68 -226 124 -38 17 -54 20 -63 11z m235 -125 c15 -9 0
-19 -90 -61 -60 -28 -110 -51 -112 -51 -2 0 -4 47 -4 105 l0 104 94 -43 c52
-24 102 -49 112 -54z"/>
</g>
</svg>
