<?xml version="1.0" standalone="no"?>
<!DOCTYPE svg PUBLIC "-//W3C//DTD SVG 20010904//EN"
 "http://www.w3.org/TR/2001/REC-SVG-20010904/DTD/svg10.dtd">
<svg version="1.0" xmlns="http://www.w3.org/2000/svg"
 width="100.000000pt" height="100.000000pt" viewBox="0 0 100.000000 100.000000"
 preserveAspectRatio="xMidYMid meet">

<g transform="translate(0.000000,100.000000) scale(0.100000,-0.100000)"
fill="#000000" stroke="none">
<path d="M417 984 c-4 -4 -7 -56 -7 -116 l0 -108 -44 0 c-36 0 -48 -5 -63 -26
l-19 -26 -62 37 c-35 20 -70 35 -80 33 -20 -4 -93 -125 -86 -143 3 -7 16 -17
29 -23 13 -6 42 -23 65 -37 l41 -26 -26 -46 -25 -46 30 -53 30 -53 -70 -41
c-39 -23 -70 -44 -70 -47 0 -18 83 -143 95 -143 7 0 41 16 75 36 l61 37 15
-22 c12 -16 25 -21 64 -21 l48 0 34 -62 c19 -34 39 -63 45 -65 6 -2 28 25 48
61 36 65 37 66 80 66 33 0 46 5 57 22 l14 21 63 -36 c34 -21 68 -37 76 -37 14
0 85 118 85 142 0 7 -30 30 -66 51 -36 21 -64 42 -62 45 2 4 14 28 28 54 l24
48 -22 39 c-12 21 -22 43 -22 48 0 5 29 26 65 46 36 21 65 43 65 49 0 22 -74
138 -89 138 -8 0 -42 -16 -76 -35 l-63 -35 -16 25 c-13 20 -25 25 -56 25 l-39
0 -3 113 -3 112 -80 3 c-45 1 -84 0 -88 -4z m139 -36 c4 -6 -2 -17 -12 -25
-18 -13 -18 -15 -1 -27 13 -10 17 -28 17 -70 l0 -56 -60 0 -60 0 0 60 c0 47 3
60 15 60 20 0 19 27 -1 38 -9 5 -14 14 -10 21 9 15 103 14 112 -1z m-350 -229
c30 -17 54 -33 54 -36 0 -5 -47 -90 -55 -101 -2 -2 -104 54 -113 63 -4 4 51
105 57 105 2 0 28 -14 57 -31z m659 -15 c15 -25 24 -51 22 -57 -3 -7 -28 -24
-55 -40 l-50 -27 -32 52 c-25 40 -29 53 -18 59 7 5 31 19 53 33 22 13 43 25
47 25 3 1 18 -20 33 -45z m-132 -113 l78 -134 -79 -136 -78 -136 -160 -3 -159
-2 -78 135 c-52 90 -77 142 -72 153 3 9 38 72 78 140 l71 122 160 -2 160 -3
79 -134z m-490 -322 c16 -28 27 -52 25 -54 -1 -1 -27 -17 -56 -34 l-52 -31
-26 41 c-40 63 -39 64 18 98 29 17 55 31 58 31 3 0 18 -23 33 -51z m592 20
c30 -17 55 -33 55 -35 0 -2 -14 -26 -31 -54 l-31 -50 -36 22 c-21 12 -45 27
-54 32 -10 6 -18 15 -18 19 0 10 50 97 56 97 2 0 29 -14 59 -31z m-306 -179
c-13 -22 -26 -40 -29 -40 -3 0 -16 18 -29 40 l-22 40 51 0 51 0 -22 -40z"/>
</g>
</svg>
